<mxfile host="app.diagrams.net" agent="Mozilla/5.0 (Windows NT 10.0; Win64; x64) AppleWebKit/537.36 (KHTML, like Gecko) Chrome/131.0.0.0 Safari/537.36" version="26.0.6">
  <diagram name="Pagina-1" id="h3_ZXvnXvEx5cNQ-iG4E">
    <mxGraphModel dx="1434" dy="-5065" grid="1" gridSize="10" guides="1" tooltips="1" connect="1" arrows="1" fold="1" page="1" pageScale="1" pageWidth="827" pageHeight="1169" math="0" shadow="0">
      <root>
        <mxCell id="0" />
        <mxCell id="1" parent="0" />
        <mxCell id="zNMo_2I_ST8-fJsPdF2r-1" value="" style="rounded=1;whiteSpace=wrap;html=1;strokeWidth=2;strokeColor=none;absoluteArcSize=1;arcSize=0;" vertex="1" parent="1">
          <mxGeometry x="150" y="5900" width="990" height="450" as="geometry" />
        </mxCell>
        <mxCell id="zNMo_2I_ST8-fJsPdF2r-38" value="" style="shape=image;verticalLabelPosition=bottom;labelBackgroundColor=default;verticalAlign=top;aspect=fixed;imageAspect=0;image=data:image/png,iVBORw0KGgoAAAANSUhEUgAAAn8AAAEwCAYAAADGqBffAAAAAXNSR0IArs4c6QAAIABJREFUeF7snQeYU8XXhw9L70WaVAuoVBvSBGnSURGkWgC7gBQB218REUUsiCIoRVRQQOxK7whSpIgigiBFeu+9ft8764S7MbtJNsluyhmePBuSe+fOvDe5+d3TJs3FixcvijYloASUgBJQAkpACSiBmCCQRsVfTJxnnaQSUAJKQAkoASWgBAwBFX/6QVACSkAJKAEloASUQAwRUPEXQydbp6oElIASUAJKQAkoARV/+hlQAkpACSgBJaAElEAMEVDxF0MnW6eqBJSAElACSkAJKAEVf/oZUAJKQAkoASWgBJRADBFQ8RdDJ1unqgSUgBJQAkpACSgBFX/6GVACSkAJKAEloAQMgdOnT8v58+fN48KFCwme2/+7v2639fQ6pYRPnTolZ8+elTNnzpgHz93/f+7cOb/OANtzPPrnrz228//2dedf3neO125vX0tsf15PmzatxMXFuf46nyf1nt2ObdKkSWP2dz5Ply6d+X+GDBlcj/Tp0//necaMGYXX+Wu3dX/O/31pKv58oaTbKAEloASUgBKIQgIHDhyQunXryr59+6JwdrE3JcTfmDFjpFKlSklOXsVf7H02dMZKQAkoASWgBAyBJUuWSMuWLZVGFBHo27evtGvXTsVfFJ1TnYoSUAJKQAkogaARmDt3rhEKpUqVkpdeeilBv7g6T548KSdOnJDjx4+7nuPGtf+37/PX+WAf+39cybHSMmfObNyy3h64bRPbxr7n/MvzLFmyJIlx4MCB8ssvv0jv3r3loYceUvEXKx86nacSUAJKQAkoAX8ITJ06VR577DHjJpwwYYI/u/q9LWKQWD/i9XjY587XnO/5fYAAd7DxeMTg2Tg8T3/d30fwhUO79957ZcGCBfLcc8/J448/ruIvHE6KjkEJKAEloASUQLgR+Pbbb6Vbt25SuXJl+eKLL8JteDoePwg0adJEVq1aJb169ZLOnTur+PODnW6qBJSAElACSiBmCIwbN06effZZqVKliowfPz5m5h2NE61evbps2bJFnnrqKenatauKv2g8yTonJaAElIASUAKBEvj444+lT58+UrVqVUEIaotcAuXLl5fDhw9L9+7djTU3qabZvpF7nnXkSkAJKAEloAQCIvDBBx/I66+/LrfeequMHTs2oL5059QlULx4cTMAFX+pex706EpACSgBJaAEwprAO++8I4MGDZJq1arJ559/HtZj1cElTuDIkSNSrlw5FX/6IVECSkAJKAEloASSJvDGG2/IkCFDhHixzz77THFFKIFt27YZ6y0Nly/Wv6Saun0j9ETrsJWAElACSkAJBEoAly+u3xo1asjo0aMD7U73TyUCq1evlkaNGqnlL5X462GVgBJQAkpACUQMgf79+8uHH34otWrVkk8++SRixq0DTUhg0aJF0rp1axV/+sFQAkpACSgBJaAEkibw6quvyvDhw6VOnToyatQoxRWhBGyxboavCR8RehJ12EpACSgBJaAEUoJAv379ZMSIESr+UgJ2CI/B6iwUd6Zpnb8QgtaulYASUAJKQAlEOoG+ffvKRx99JHXr1pWRI0dG+nRidvy47O3azD169JAuXbokyUITPmL2o6ITVwJKQAkogVgnQIFnCj3Xr1/fuH+1RSYBhPsrr7xiBt+zZ0958sknVfxF5qnUUSsBJaAElIASCC0BrEVYjRo2bGgSP7RFJgFbrJvR69q+kXkOddRKQAkoASUQ4wQ6dOgge/fulbZt20rjxo0lZ86cISHy4osvmhIvHGPo0KEhOYZ2GnoCgwcPlrfeessc6Omnn5ZOnTqp5S/02PUISkAJKAEloASCR+Chhx6SmTNnmg7j4uJMEeY777zT1HLLkiVL0A7Uu3dv+fTTT6VJkyam2LO2yCRgV2ph9M8884x07NhRxV9knkodtRJQAkpACcQqgYsXL8ovv/wikydPlokTJ8q+ffsMirRp05qVHGrXrm0edj3X5HJ6+eWXTYkXhCXWI23hReDEiRPy888/m3OelOi3K7Uw+meffVaeeOIJFX/hdSp1NEpACSgBJaAEfCdw4cIFWbhwoXz77bdGDCIIbCtZsqQRgWTr3nzzzcZK6E+zdf6aNm0q7777rj+76rYpQGDVqlVyzz33CBbae++9N9EjvvbaazJs2DDz/nPPPSePP/64ir8UOD96CCWgBJSAElACISdw+vRp4w5GCM6ZM0fOnTvnOiZxgYhAkjdwE2fMmNHreAYMGGBi/Zo1aya4DrWFFwEr/li9AyttYs1acHn/+eefl8cee0zFX3idSh2NElACSkAJKIHACRw/flzmzp0rX3zxhfz000+Cq9i2TJkyGYtgvXr1zCNr1qweD0iSAO7e5s2by8CBAwMfVJj1sGzZMjl8+LBhkSZNmjAbnffhWPFHrGdS4twm7tDj//73P3n00UdV/HnHq1soASWgBJSAEohcArt375avv/5afvzxR/nzzz8TTCRdunRSpUoVqVatmpQpU0bOnz8vW7dulWPHjsnRo0dNokeLFi1c2aK+UtizZ4/8+uuvxvq4fv16OXPmjCkzEk4ii6XOEIDffPON5MuXz9ephc12S5culVatWhk3Llm8iTVcvWPHjjVvv/DCC/LII4+o+Aubs6gDUQJKQAkoASXwLwErvhBgR44cMQ+e28epU6fk5MmTRlQ5H2fPnhXcv7zGc6fFj67ZD2F28OBBs7+7GHNuT5bvpEmTjMAgacCXhnikPAxLwzndzldffbWxQoaTyEL8zZ8/34i/YsWK/Wd6cGI5NCyjb775puTIkcMXBCm2DS5+Mr+9JXFQ2PnLL7804yI+kH2SarrCR4qdQj2QElACSkAJRDuBzZs3y44dO4xlbefOnXLgwAE5dOiQcT0i7hBk/J+/KdHchaG7EERUvP7669KmTRvz11ujP4pBs+3ll19uVpMgyYRi0czPm0jx1n+w30f8kSTz1VdfSbly5f7T/YIFC1yJFKyK0bVrV0mfPn2wh5Hs/qz482bN69atm4kDpXEuHnzwQRV/yaauOyoBJaAElIAScCOAZW3t2rWyevVq42Ll+ZYtW4y1LdyaFX+IPvfnWMIeeOABIeOXYtL9+/f3OvwZM2YYlyIlZj7//HMpUqSI2QfLGkILgcXroSpK7XWA/26A2CYrmvi3WbNmmfFgKcUSSuP/48ePl2uvvdaU0mGZu2zZsoWde9iKP9Zfvv322xOdPkWdmQeNuVAkPKmmlj9fP0m6nRJQAkpACcQcASx0f/zxhxF6PNasWWPi24LRSMogI9c+MmTIkOD/WKB4zfngNbbntcyZMxurm/s2xPhheaRO4MqVK4XEENsKFSpkhB5u3vz585sCz7gJEYF2bdjE5oZl7/7775eNGzfKmDFj5IYbbnBtChOSRnCffv/996ZvXNK4IhGZxBvyf/ghkq+//vr/uIdxZbOqCfO57LLLTE3D5DRi34iBc28I4PLly0vNmjWlYsWKUqlSpbCy8nmaq6/ij7p+WDhpZP62b99exV9yPjy6jxJQAkpACcQmgSVLlpgyKliM1q1b5zMEBE/hwoWNNaxo0aKSO3duyZUrl7Ey8Zy/PAoWLOhzn/5siPWRmDsSP3A524ZgpPwL4uy2225LUAvQij9fYv7ILG7Xrp3gHu3Ro0eCWEKEGytLwAvLH/NF5N11111SuXJlk6yAxZDsVRqC0CZheIohxII4YsQI41p2b4jIFStWuApf01fp0qVdYhERO3LkSEEE07B4Mk/K3/jTGBfWNGIbmQvikVqKrJ6BgHSKU6zBWIGvu+46U4wZ8Y0LnNepn2gtpM7je5sH27JmL1m+iGgEc2KN0i5Tp041b/ft29ecp6SaWv78+STotkpACSgBJRB1BHAR4s6cPXu2zJs3z2TBJtVweZYtW9Y8yJ5FfFx55ZWpwoWxkuE7YcIEI4icDaFCfTjKhODS9NQ++eQTEyOGSHvvvfeSnAMJIcT7ITBvueUWr/OFK4WJEbxY8yhHg0iBWYECBYyQotkYQqxyuI7ZjnEhYNxr22FhpI8NGzYkOD5jZ5USBBqibdeuXcb6iHDCZZpYzB+dIND++usvIyBtvB/iGYHL6hq0PHnymPcQgYhJVtwYNGiQOQZt0aJFJm4SN/Pdd99tuFsLMQwQZFaMsr0v87Dij+MkNX62Q5CSuEND/GLJVfHn9SOqGygBJaAElEAsEeAHHJGBlQrXGoLBvfFjzQoaiBUr9HieWM28lOLHih+IVKxBiFZi2WzDXYqFD8FxxRVXeB3Sxx9/bGLEGjRo4FohIrGdEGawQogQK+et4W4m9gxLKqKMYtIIUWcjExdXctWqVY0IJNsW4YUYRWA5a9v9/vvvRtRgMUPg1KpVy2zPuLDUehoXljOSUxCTbO+pWdcqnwXc0zT6xDJJ/++//76xmDIHMrERkwgy55htPT5i70j4GTdunHEtM2bOCX1Zi68/82D8voi/Ll26GHc7jRjO++67T8Wftw+ovq8ElIASUAKxQYDsW36YeeCac29Y8HDp8WOP+PBllYyUIkeWMCIGkeKeXMJYEXz169dPYGHyNjbW9cW6xpxxjSbV7PqxbMf23hoCm+xZREnjxo2N+9OZSYvFDVcwIhyrG5Y+eA8fPtzEBuL2ZcUSGrGXCD+yqZ3xhta6iPhiiTP3JdCs+EsqYcLW0qPeIe5xGha8zz77zBTAxqLobMwLIQsP+77NGsbKyZhwc1Ob7+23305gLfV3HvQDP2+WPytWGSeJO8R1JtXU7evt06vvKwEloASUQMQT4MeZRIBp06YlqE1HfBYWHMQMq0AQsxduDRcmIgNLH7F1tuGKpDgzVh5PNex8mQeiCJckRaDJfk2qWesWFiwEoC+WRStKsOpZYWWPYfsji3X79u2mYDQNiyuuaCyCtjQNlj2SGFiRhDnbZrOM+T+CHcFIIo1tnsQfCSv0w6oYxBTacVAbzxZS9lYihrIqlFexJVis9ZDjshYv1kaErnvChr/z8DYOO0/GjTtexZ8vn3rdRgkoASWgBKKaAIKCH2gydp2tQoUKxjpCkeNwsu45x4jQQ7xgkXK6dm+88UbjTsWFGmhNOsQSCQ30+d133yX5WcDixfa4FYkhRDxhFUNAJ9as+PNkebPCyGan4iamFAvJIu6Zvu7b4qbHGsY6tiSHMDZEnbvrd8qUKcYC5xSfzIE1jRFLxB1aN3OJEiVMogjzQXxiZcXle8cddySYHlZJlk/DcokgRwRbjsQA2tfYiSQQxCBJMmTk+jsP+BHL5y3hw7nCh63bmNTJVMtfVF/2dHJKQAkogdgkgFsUN6AtfAsF4reaNWtm3IesRhHObd++fSZxgAxeGiKPODisX56KFSd3LrhYEXOlSpVyZYsm1Rcii8QYYsxINsEyh+DhdeuKrlGjhhFbiCgr/jy5ZEnawIqXPXt2r5ZEOCCiWMaO4yGMca8ivGzcJoLNPRPZii0EINm3CEQKIMMTS2fevHlNeRk+F1gBiYEkpnP58uWmHA7zwrJK/B5jwHJHDCMCFUFrk1as+HOPtyPMoGXLloKwREgSD+jPPBD+rDzirc6fc21fhC0JJyr+kvut0P2UgBJQAkogogggCvgh5keTIr80rFrEgmGlClcrnztkxB/CApHC2BE1CJVgN0QaMWJXXXWVETa+NthSWgTrGAkMiCTqDtapU8dk45K5SyNujvg5T4LEuVoIlkTcqLhuEUyUlcGli6C0yRq47OFgXd/EEZKsghikBiECb//+/UbUIc5oTtFo5+aefMISdRybzwbuYFsQG6shwgvBaBs3EFiMO3fubESrbRyf2DwEuvsSccwDUcmSeIzLn3lgscb97Snz2Xmu4MAxaIwZwaniz9dPs26nBJSAElACEUsAMYLlxVrLyNTFpUmduUhsxKIhbCiLEqpmxR+xjgsXLgz6YcjM/e2330xChyf3MAKQWnpY5dxL7JAli4jBymj3pT8SXxBYvgp5G9dILGHTpk1NWRR3y69dI5mSNO6NMXJMxuDrMb2B9HUeHBsrJOKYGoKJNT73WHFp7nGRnvZRt6+3M6TvKwEloASUQFgTwP2H5QZ3JI3Cyqw5i8VEW9IEyFrFKkfyiE24SA1miKFNmzaZ+neMBbEYzCXisFRiRQ00RjI12PhyTOL8iA+lkWGMazmppuLPF6q6jRJQAkpACYQlAVyOBN/bFS2IiXvqqaeCKhzCcuJBGhRxaLgJiXMjOUFbZBLA2kdGOI3aiMQwqviLzHOpo1YCSkAJKIEkCBDbxZJiNEqV4OIlsF6b7wQQDAgHXKLuq2b43otumdoEKARtC2Kr+Evts6HHVwJKQAkogaATYIULSlvYunQUCqbkR1xcXNCPFe0dUnh54MCBZpr//PNPtE83audnRTwTRAiSKa6Wv6g93ToxJaAElEBsEaAOHG5eVoUgfgurFUH82pJHwGkxWrt2rcnY1RZ5BGwxa0bOOsdkHav4i7zzqCNWAkpACSgBNwLUY6PmGiKFTFBKW1x//fXKKQACTvFH/GQwkywCGJbu6icBW2dQxZ+f4HRzJaAElIASCF8C27ZtM2U/WAaM5cVYyaFo0aLhO+AIGZlT/LHGLaVltEUeAW6EqPVHw5XvzRqu2b6Rd451xEpACSiBmCKA8CN7kdUd8uXLZ1btUOEXnI+AU/z9/PPPUqRIkeB0rL2kKAHWrSYOlqYxfymKXg+mBJSAElACwSbgXKEB4YfFjyW9tAWHgDPhY/78+VKsWLHgdKy9pCgBVhehGLaKvxTFrgdTAkpACSiBYBNgHVQC11niS4VfsOnG9+cUf/PmzVNhHRrMIe911qxZZs1impZ6CTluPYASUAJKQAmEggBr2xK3tHXrVhV+oQD8b59khrIiBI0VUtyXPQvhobXrIBJYvHixtGrVSsVfEJlqV0pACSgBJZCCBFjjFeFnl/oixk9dvaE5AU7xN3PmTGE9ZG2RR4B1oJs0aWIGTt3G5s2bJzkJTfiIvHOsI1YCSkAJRC2BU6dOSZs2bWTFihVmjdcvv/xSV+0I4dl2FgeeNm2aXHfddSE8mnYdKgIbN26UWrVqme51bd9QUdZ+lYASUAJKIOgELl68aOKWcD9mzJhRCGIvVapU0I+jHV4iYNf25ZXJkydLmTJlFE8EEiAu9pZbbjEjp/B5ixYt1PIXgedRh6wElIASiDkCr7zyiowcOdLMe9SoUVKnTp2YY5DSE3auDDF16lQV2yl9AoJ0PEIlrHB/8803TU3MpJq6fYMEXrtRAkpACSiB5BOYMGGC9OrVy3TQtWtXeeqpp5Lfme7pM4Hhw4fLq6++arYnY7REiRI+76sbhheB4sWLmwGp+Auv86KjUQJKQAkoAQ8EyFQkzu/ChQtSu3Zts2ybtpQh8NFHH0nfvn3NwVgv2QqIlDm6HiWYBAiROHHihLzxxhuuzN/E+lfLXzDJa19KQAkoASXgFwGKODdq1EiOHj1qkg2I88uUKZNffejGySfgXBZs0aJFUqhQoeR3pnumKoEKFSoI618PGDBAWrduneRYVPyl6qnSgysBJaAEYpcAmb0NGzYUMhVz584t06dP17VlU/jjMHr0aHnxxRfNUZctW2ZqKmqLTAI1atSQzZs3y+uvv24s6Uk1FX+ReY511EpACSiBiCfwyCOPGMGXIUMG+frrr6V8+fIRP6dIm8C4cePk2WefNcP+/fffJWfOnJE2BR3vvwQaN24sf/zxh/Tv31/atm2r4k8/GUpACSgBJRBeBIYMGWJik2gffvihsQBqS3kCFNDu1q2bOTBWozRp0qT8IPSIQSFAhu+SJUtU/AWFpnaiBJSAElACQSVAbJmNSerQoYP06dMnqP1rZ74TmDJlijz++OOSLVs2Wb16te876pZhR4DvEjUy1fIXdqdGB6QElIASiG0CBKTffvvtcujQIVNT7scff5T06dPHNpRUnP2cOXOkffv2UqxYMZk/f37QRnL69Gk5f/68eZDFzd9z5865ntvXvb3GvuHY4uLixNMDy6nzdW//d+/DfXvep+C5L+3JJ5+UH374QcWfL7B0GyWgBJSAEkgZAvyQs+YoS7eR0ctaskWLFk2Zg+tRPBJwWmEVUXQQoG7jfffdl+RkNOEjOs61zkIJKAElEPYEWHaKtWRpxPzZhejDfuBRPMCdO3dKvXr15MiRI1E8y9iZGlbCzz77TCpWrKjiL3ZOu85UCSgBJRCeBJwWJtYdRQhqCy8CLBGGu/bMmTPmwXNf/+++XWL74+ZlDWfr9sUanNiDbdjWvu/8v/tztmFbxpFYw9qcNm1al1uW5zxwtdrn1g1rt0vqb7p06UzIgvtf+xpZ7LzHwz7nPec+7vvb7fjr3hgLr7MPfxF6/LWvZc+e3ecPlFr+fEalGyoBJaAElEByCDjj/FhBYtq0aZI5c+bkdKX7KAElEAQCKv6CAFG7UAJKQAkoAc8EsMjcc889snz5cmOpmDRpkpQsWVJxKQElkIoEVPylInw9tBJQAkog2gkMGjRI3nnnHTNNXwLRo52Hzk8JhAMBFX/hcBZ0DEpACSiBKCSwePFi1wLzFHGmmLM2JaAEUp+Air/UPwc6AiWgBJRA1BE4ePCgqee3b98+KVCggCk+SyFhbUpACaQ+ARV/qX8OdARKQAkogagj0K5dO5k7d66ZF+v2VqhQIermqBNSApFKQMVfpJ45HbcSUAJKIEwJjB8/Xp555hkzOpYOe+6558J0pDosJRCbBFT8xeZ511krASWgBEJCYM+ePXLbbbfJyZMn5eqrr5apU6eaOmTalIASCB8CKv7C51zoSJSAElACEU+gVatWQqIHBWkp68L6vdqUgBIILwIq/sLrfOholIASUAIRS+DTTz+V3r17m/H36NFDunTpErFz0YErgWgmoOIvms+uzk0JKAElkEIEtm/fLrVq1TLLa5UtW1Z+/PFHs4yWNiWgBMKPgIq/8DsnOiIloASUQEQRYE3VZs2ayYoVK8wqHjNmzBCWcdOmBJRAeBJQ8Ree50VHpQSUgBKIGAIjRoyQfv36mfG+8MIL8sgjj0TM2HWgSiAWCaj4i8WzrnNWAkpACQSJwLZt26RmzZpy9uxZKV26tEyePFnSpEkTpN61GyWgBEJBQMVfKKhqn0pACSiBGCHQvHlzWbZsmcnunTZtmpQsWTJGZq7TVAKRS0DFX+SeOx25ElACSiBVCYwbN06effZZM4bu3btLt27dUnU8enAloAR8I6DizzdOupUSUAJKQAk4CLBmL+7eo0ePSokSJYzVL126dMpICSiBCCCg4i8CTpIOUQkoASUQbgRYtm3KlCmmnMvEiROlTJky4TZEHY8SUAKJEFDxpx8NJaAElIAS8IvA7NmzpUOHDmafxx57TJ5//nm/9teNlYASSF0CKv5Sl78eXQkoASUQUQSOHz8u1atXl/3790vhwoVl7ty5unZvRJ1BHawSEFHxp58CJaAElIAS8JnAc889J2PHjjXbT5gwQSpVquTzvrqhElAC4UFAxV94nAcdhRJQAkog7AksX77crORBu+eee+Ttt98O+zHrAJWAEvgvARV/+qlQAkpACSgBrwTOnTsndevWlY0bN0quXLlk/vz5kiNHDq/76QZKQAmEHwEVf+F3TnRESkAJKIGwIzBkyBB54403zLjeeecdlwUw7AaqA1ICSsArARV/XhHpBkpACSiB2CawZcsWqVOnjpw5c0YqVqwoX375ZWwD0dkrgQgnoOIvwk+gDl8JKAElEGoCrVq1ksWLF0v69Ollzpw5UrRo0VAfUvtXAkoghARU/IUQrnatBJSAEoh0Aj/++KN07tzZTOPpp5+WTp06RfqUdPxKIOYJqPiL+Y+AAlACSkAJeCZATb8aNWrI3r17pWTJkjJ16lRdwk0/LEogCgio+IuCk6hTUAJKQAmEgsALL7wgY8aMMV1PmjRJypYtG4rDaJ9KQAmkMAEVfykMXA+nBJSAEogEAqtWrZImTZqYod5///3Sr1+/SBi2jlEJKAEfCKj48wGSbqIElIASiCUC58+flwYNGsi6deskX758Mm/ePMmaNWssIdC5KoGoJqDiL6pPr05OCSgBJeA/gY8++kj69u1rdhw8eLDceeed/neieygBJRC2BFT8he2p0YEpASWgBFKewJ49e6RmzZpCskflypXliy++SPlB6BGVgBIIKQEVfyHFq50rASWgBCKLQJcuXeT777+XDBkyyKxZs6RYsWKRNQEdrRJQAl4JqPjzikg3UAJKQAnEBoHly5e7lm3r3r27dOvWLTYmrrNUAjFGQMVfjJ1wna4SUAJKwBMBkjxuv/122bhxo1nBA6tfxowZFZYSUAJRSEDFXxSeVJ2SElACSsBfAsOGDZPXXnvN7DZ+/HipUqWKv13o9kpACUQIARV/EXKidJhKQAkogVARIMmjWrVqcvr0abnjjjvk/fffD9WhtF8loATCgICKvzA4CToEJaAElEBqEujYsaNZwSNLliympl/+/PlTczh6bCWgBEJMQMVfiAFr90pACSiBcCawcOFCadOmjRniyy+/LO3btw/n4erYlIASCAIBFX9BgKhdKAEloAQilUCtWrVMkke5cuVk4sSJkToNHbcSUAJ+EFDx5wcs3VQJKAElEE0EPvjgA3n99dfNlBB+CEBtSkAJRD8BFX/Rf451hkpACSiB/xBwJnk88MAD8sorryglJaAEYoSAir8YOdE6TSWgBJSAk8Djjz8uU6ZMkVy5cglxf1mzZlVASkAJxAgBFX8xcqJ1mkpACSgBS8CZ5DFo0CC5++67FY4SUAIxREDFXwydbJ2qElACSuDs2bNCksfWrVvlpptukm+//VahKAElEGMEVPzF2AnX6SoBJRDbBN59910ZOHCgpE2bVmbMmCFXX311bAPR2SuBGCSg4i8GT7pOWQkogdgksGPHDqlRo4acOXNGKOz8zDPPxCYInbUSiHECKv6WnHqQAAAgAElEQVRi/AOg01cCSiB2CLRr107mzp0rBQsWlJ9++kkyZswYO5PXmSoBJeAioOJPPwxKQAkogRgggIv34YcfNjMdPXq0sQBqUwJKIDYJqPiLzfOus1YCSiCGCJw6dcqIvV27dkmTJk1kyJAhMTR7naoSUALuBFT86WdCCSgBJRDlBFjFg9U8smTJIvPmzZP8+fNH+Yx1ekpACSRFQMWffj6UgBJQAlFMYMOGDVK3bl05f/68vPbaa3LvvfdG8Wx1akpACfhCQMWfL5R0GyWgBJRAhBKggPOKFSvkhhtukO+//z5CZ6HDVgJKIJgEVPwFk6b2pQSUgBIIIwJffvml9OzZ09T0mzVrllx55ZVhNDodihJQAqlFQMVfapHX4yoBJaAEQkjg4MGDUr16dTl69Kh0795dunXrFsKjaddKQAlEEgEVf5F0tnSsSkAJKAEfCSD4vvnmG7nuuutk0qRJki5dOh/31M2imcCRI0fk2LFj5sFzMsEvXLgg586dM3Gh7n89vWa34T0eadKkkbi4OPPguacH1mdPrzv3sc/hf/HiRTMu/trn7v9P7HXnds6x2THw146Xv57+z37J3c726ezDHjup99yPZ7cNRT1Ov8Xf6dOnzckGrvtfX17ztK/zNfthsn25v+d83fke0Lw9uPhZmGzL/9334TXn6+7P7f/5mzlz5mi+RujclIDPBOx1wdsPhfsPi/MizYXc/aJv/29/ADz9ZRtnP859eN1TH8nZx/3Y3sbK+84fO/f/8559zZ9tnfu5P7fHW7NmjXz44Yem///9739y+eWXm7EkNQb3sfqzrae+E9vf+QPs/GF2/hh7em5/SD39tds7fyT37dsnPPjM5c2b1xS2juW2bNkyue++++TkyZOxjCHi507mfps2bQKeh1fxN3nyZBk2bJhs37494INFawdFixaVrl27Ss2aNaN1ijovJWAsBMuXL5eVK1fK33//LQcOHJDVq1crmTAjgODF5cvfrFmzmvIu2uIJIAKLFCliRFCsXa9Hjhwpr7zyit8fBT5DGDvSp0/vejj/z/NgW6a4ieR6w00lD/vc/vV7ElG0wwMPPJCs8+iOwKv4a9q0qWzbti2K0IVmKmXKlJFPP/00NJ1rr0ogFQkg9rgBXLp0aSqOQg/tKwFi/PiRxMKWJ08eX3eLue2qVasmL774olx22WUxMXdb67Ft27bSv3//iJ/z8ePH5ezZs2adagSifc7/efB/pyfCPne6uBN7zXogsRpbj0RSwPiuIY6df60X0elNtNvwWoYMGfw6BxMmTDBhHA8++KC89NJLfu3raWOv4q9ChQoBHyRWOsCsrk0JRAuBHTt2yBtvvCELFiyIlinFxDyI4+LHMFeuXOYHSVviBHLnzi2ff/55TBS9Juub7O/WrVvLgAED9GMRYQT69OkjH3/8sTz22GPy/PPPBzx6r+KPbDGNEfCNMy5yrZzvGyvdKrwJcIf51ltvmTtobZFFwAbBY4XQ5p3ALbfcYlY/ifaGxYhyPy1atDDfbW2RRYBs/W+//VY6d+4svXr1CnjwXsXf7bffLocOHXId6Lb7/yc58hU1/z935pScO31Szp45KWdPnYj//5nTAQ8qqQ7SxKWRtOnSS1zadBKX9t+///6f19O6vRaqwZw4vE9mf/RCgu5HjRol5cuXD9UhtV8lkCIEpk6dKi+8kPCz7X7g668uILdcV1iqli0q5a8qEPRxnT6Lu+XfjD+T7Zfw+YULF8X8u0iyh+O5yRCMTxy58O9zk6hhkkL+7UfitzH7XiSbkL49Pw9kYudNpqJIyP6ej09mCVXjWhtnMjfjE1eC/TwuDZmh9C3iz3Nf58v537jjoPz29y759e9dsu/wiUR3Za3jSpUq+dp1RG535513ym+//SbNmjWTd955JyLnEMuDbt++vcyZMydoZZu8ir/GjRvL7t27Xczv7DVSCpa4IZbPgZn7oV2bZcJL9yTg8Pbbb5vF07UpgUglQCIHAcWeLH7VyhWT1rXLSuXSRSJ1ejruGCawdO0Oef/bJbJ6897/UGjQoIH069cvqukQ47h161Yhjv/dd9+N6rlG4+Q4b7/++qs8/fTT0qlTp4Cn6FX8sTQQHxjbGnUdIkVKR/cdki9UD+zYKF+93DLBpgTRsoamNiUQqQSeeeYZ4xpytsJ5s8srD9UOiYUvUjnpuCOXwPvfLJFPpv2WYALZs2c3VpVwbyRfXXPNNcnK4C5VqpScOHFC7rjjDnn//ffDfao6PjcCZKdv2rTJxPsR9xdo8yr+CA7FGmBbg86DpFi5aoEeN+L337/tb/n6ldYJ5kFAZpMmTSJ+bjqB2CSwd+9eadiwYYLJF8mXQ0b2ulPy5tRyIbH5qYjOWd/5/DjZsf9ogsn98MMPUqhQobCdMKWVKleubBJ53nzzTb+8TGS+lihRwswNb97QoUPDdp46MM8EWJubEk5kqD/88MMBY/Iq/nAB/fnnn64D3f7oALnq5joBHzjSO9i/bb18/UrCQovPPvus3HNPQldwpM9Txx87BKZNm2YKAjvbyx1qSuPK18QOBJ1pTBD4dNpKGfzNLwnmSgZsnTrh+9tGKAYx+P/8848ZN25ADA5kLHtr1OmtWrWq2YwbPFsA3Nt++n74EChevLgZDGVeSN4JtHkVfyhMTM221X6on5So2CDQ40b8/vu2rpNv+rVNMA988S1bJnQFR/xEdQIxQ2D8+PH/yQJcMPhByZRBlwWLmQ9BjEx0y57D0uzFLxLMlmxKij+Hc9u8ebOQuHH48GEzzJw5c8rAgQONKEyqrVq1yuWVqlevnowYMSKcp6ljcyNA+aZy5cqZV19++WUh+SPQ5lX8EVi4ZMkS13FqtO8j11ZR16Za/gL96On+4UYAVxAZ67YVL5BTvu7bKtyGqeNRAkEh0OS5sbLrwDFXXxg6Hn/88aD0jdhatGiRidHauXOnUDOTv/yIsxoGMYbZsmUzfwsUKCA333yz3HjjjeaRKVOmJMdAn8R8/fXXX67t7r//fuMOTGylDeIZrWDAuun8ngdlwtpJSAls2bJFKLtHIzGJ8x1o8yr+WBx8/vz5Kv7cSB/Y/rd81TdhzN9zzz0nzZs3D/Sc6P5KIFUIfPLJJwkCwctdmV8+frZpqoxFD6oEQk2g96g5MnnJetdhWrVqlez6aQg7BBYF0XlYy1xy5lC2bFkjBitWrCi33nqrR7cuRbxZqm3MmDGuQxQrVsys3EFWr3v7+uuv5amnnjIv165d2xQL1hY5BJyWW84xq7QE2ryKP/fsP7X8xSP3lPBBvBTZ0driCRCbQqxJlSpVXIvKK5vwJcCPFq4v20oWziPjemsMa/ieMR1ZIAQ+m/G7DPpqsasLEiFwqfnaqH9LMXQe/DiHqpGlyzJ9pUuXFoTh9ddfL1deeaU53C+//CI9evQQLEO2kc1LXFi+fPlcrw0fPlxeffVV83/KkY0ePTpUw9V+Q0AAA5wNSWCZvjZtEuYbJOeQXsUfxV4p+mpbpIi/8+fOyR+zx0n2ywrJlTfVDrr48CT+MLvfddddyTkPUbkPVfN5cNdZsmTJqJxjNE2KrH6y+20rmi+HfNsvoXU7muarc4ltAjOXb5Rnh890QcBiNmjQIK9QJk2aZK5p7iWREtsR9y7uXBYAyJs3r8nWtesJsz6tfVCGBbcwQg43MX/379/vsdusWbMK2Z/0iSCkeDNWQLsaF+5kYtBxD1Kgmxq07733numLebKknbbIIfDjjz+alT1oLLmJlTrQ5lX8cSfEgSNN/LECxw9vPixp4uLkjh4jJEvO4C7e7anOX9++faVRo0aBnpOo2R/hx10KFxpProiomWiUTISsfrL7bSuYJ5tM7O+fe+Hc+Qvy15Z9cnWh3JIpo64rGyUfjaicxtRf/pYXPprtmhsB9Ym5Q1esWGEE33fffSfHjl2KE0wMDN4OEjPIsL3iiisC4vf7778LZWjmzZsn69atS7QvRCWiD+F4/vx5s12FChWM8COZyy5hx5jGjRsX0Jh055QlgLC3qy6xNB9L9AXavIo/UsknTpzoOk71+/4npaqHv2tz7z9rZNKgjhIXl1YoTJ232LWBskqw/8Gdm+XLPgldYtReqlWrVlCPE8mdWfH30Ucfec1GC/d5clfOhZ+sulCv30xRddjt2bPHWAwo7nn11Vd7DQQPlOHy5csTFA/NnT2TzHjrkhj0pf9lf22XroOnCiKwVPF80rJmGal5Q3HJkimDL7vHxDZL/twmzwyfKRWvKyxPNqso1FLEOhPsduLUGZn6ywa5rXwxyZsra5Ld+7NtsMeZWv39uPAvefnTea7DX3XVVTJhwgTX//nOI/g+/fRTWb/+UmwgCRrE3GFl469tLA+H54dSKrhpQ9GwBM6ePVuwPiZWlJrlDGn2M8VfxmOtiNQK/OKLhJnOoRir9hk8AoMHD3ZVYiC7Oxi5BV7FH7EDfNBsu7X101Kmlv/lTM6ePiW7NqyUMyePydmTx2Xr6oVya5tnJEuO0HxJNq6YLTOHPS0ZsmSXxt2GSr7ipYJ3JkTk8J6t8sWLCUUwJ4g7Pm3xBDBPU0+KCw2Lp0dyI6aHGo49e/aURx55JKRT2bZtm5A8RJY97p0cOXLItddea2J1EIKXX365xMXFBX0MP//8s3Tt2tXVb9ZM6WXeux38Og6ib9ysVTJi0go5ceqs2Tdj+rTSoGIJebDhjVI4Xw6/+ovGjT+f8bu844g1g881RS+Tu269VqqXKy6XBamg9pp/9krHQZPk4UY3yb11k15z3J9to+WcuIu/IkWKmBs8hB7JT8TyIQBpWbJkMTF3/N9Z95YbQX6ICcAn4SIl2759++Srr76S6dOnG7cvhZw9NSsCL1y4YK4bXIvZT1vkECC5Z+TIkWbArMvM+syBNq/izz3mr/I93aV83Xv9Ou6eTatl7icvmfVwbYtLm07qdRwoxcrGF54Mdvt18ihZ+v1QyZIzrzTu/oHkvjw+QDZY7cje7TL+hYTxfdROwlITbo1g0d69e5uAUYpDhsLK4GnOZIpPnjzZXGhsjaJwY+PreKz4e+ihh0wsTSgbF3HKOCxcuNBk2rOeIxYG3DrcwcMSEYilgRiiYJ3PmTNnCoXKbUufLk4WDUleJXksSXNX/iOfTFspG3ccNF2mjUsjtW+6Uro2qyQFL8seSoQJ+mYsb36xULbvOyovt68pl6fgsT1NkvG8+tl8mbZ0w3/ejotLI6WL55OHG98kVUoXkbRpky/yraC7p0Zp6dS0YpK8/dk2xU5ciA80Zcl6eXHUpSXdKLGCAKREi224Tbnx4oYMt6ttlEsh7qp+/fohHqWYawFu3927dwuCjwfJdMQHJtWwAPLg+oDowxXMXzKJEbbaIocAxoCxY8eaAbMuMwW+A21exR8HnTFjhus4t9zdWW5s4HuBwd0b/5BpQ7vL2VMnpGydNlL42ltkxaQRsuvvlVLo2gpGAGbIFPylo+Z+0kfWLZooOfIVkTt7jTQiMJjt2IFdMva5hPUOP/vsM7nuuuuCeZig9IX1ljtZLm4I1Ntuuy0o/XrrBPHHqhGIP+6aI7lZ8UdMJ3deoW5cqAkE5wJPDA8/SNzhk5TBBRxrIMLvpptuMhZBfqQQh4E0wjsI87AtXdo4WTw0eeKPPg4cOSGPDZwoN5W8XBpWKimDv1kiqzbtMUWjO95VQVrUKBOQuPF1rpt2HpQn3pkk+w6fkPq3XC3/u696qruhP526UgZ/+4s0rXadPN26quw5dEJmLNsg38xfIzv3x8eUVSpV2IhVby7bxDhYQVfj+iukT/uaSeLyZ1tfuYf7diR8PP3hdDl16pRx4WIZoxE3h5WflTO4+Vq6dKl5nRp69957r1laq3Dhwik2PQwwzpIuzgNzHcBdjdWRJBKWcOP5xo0bTckZxs/8nI1Eke+//z7Fxq8H8k4AizKeF0r7YGV2b2R0W2stHkbiSQNtXsUfVg5iDGyrcNcTclOjh3w67rEDu2XK4C5yZO82qdWhr2tZOFymk955Qk4dOySNur4vBUvc4FN//mxkxV/+K8tKgyffk0xZg+tuOn5or3z+TMJ1UDk5gQb3+jNHX7c9evSoiRcgdoUVSHDHpkRD/C1evNhcaEIdJxeq+WCFo6QDbpVHH33U/EAgulgH1zZcPtReClVDCHIOGQfiDyE4d+5ckw2YIUMGIwQLFixo7uixCFIKgh8wfxufXxJ0bAvE8kcfiK2H3/xBCufNLm89Uc+IvtWb98pbXyyUPzbtkdtvvlJeuL+GZMsc2nhArB/L/tphjrv/yEkZ0rWRXFssuDeD/rJG/A35fqm8+VhdqXFDwoSAQ0dPGrf5V/P+lCsK5pL3nmwoBfJk8/kQuN4PHzslqzfvkedHzjbWn1zZMpnzcf5CfDxY89tKyXP3Vjexmb5u6/MAImDDlet3yKAv5sucFZfWrc+cObP5/KdPn95kxq5du9bMBFHVoUMHkzkb6A1WctCQbIKIw+rPtQfhyXNKuSRW1NkeB+GH1ZB4dGKIaXgOnHH8yRmT7hNcAta4gIeOGwz31qVLF5dgf//994VyPoE2r+KPwpA//fST6zg33/Go3NzkUZ+Ou+zHYfLr5I+kYtPOUr5efMo57dyZ0zJz+DOyZdUCY/m74vrgW6Ks+GMpuhrt+kjadAmXqOKCePLoQTl/9rRkzJrTb+sjwnV0j4RL6hAbSTCwtngCSYk/+BOAzMWJO2xi24LZgtE/7hWyX1evXv2fofGDQAYzmXP8xV1kGxdZhPa3335r6hzS+PHAAhuoixb3L9mGLPLOsotY5RHYvAZDlnvix4E7SJJTSBTx9gNhx01WttOqiVhjebfkNiv+riuWV/o9WEvSpUtrujp1+qxxB4+aslJq33hFkgLw9JlzcuDoSUmfLq3kzpbJo6WQ40yYs1qmL9sgO/YflQsXLkqbOmXlqRbhWV+Sz2bvj+fI0rU75IPujeXKy/+7Niuu4be+WCQ/LPxLut9T2WvMnj1HWFu7DZkmf26+dHNi38ufO6vcfM3l5lGpVBETi+nrtp5c5YzxwNFTRrznzJoxwWf7n12HZM7KzYLLmff3Hz5hxGjenFnkmqJ5BauyP+38+Quy6M9t5jyv3LDLxJPSF0L+6sL+xY2/9+UCeXvcJRcu3w+8IpRk4UZqzZo1ZmhY0J544omgFNT1Z66h2JZwFcI6aJSGccbxh+J42qd/BKz4o9SWp1qTrDwzZcoU0+mQIUNcS/X5d5SEW3sVfyhOYo9su7Hhg3JL045ej3ni8H6TbZs+Y2ap32mQZM6e0CW1btEkWfzVO1Ln0del8LUVXP1dOH9eNiyfIUu/GyLH9u+UtOkzSr4rSssN9dtJkdJVJC5t/A+Is104f052bfhdzpw4InkKl5BM2XLJ9A96ys71K6TuY2/KFTfUSLD9kX07ZO7HvY3rmcYxKjfvKqVrtvD5x/nk0UMypmdC8UfdJ358o6WxkDhihTthZ+PHiztH7lIQIbgdEXq4E6y4wWWJ4MFqhRDiwmob2ax8rrijpbEP7sZ27dr5zJ9+GR936+7Nl/4RnQRu46bHzM4+xLvxOjEViLkNGzaYlHpEKsKKOSGo+PJ5WoIJKyGZzdxlnzt3zgyLzwP90w+m+2A2XAVYAxGYuKaISeIigkDE8oeVggKxZKDj6sf6mlSiCGUumJttmTOmk/nvBS7+bihR8D9uRz5DY6b/Lu9/94t0vOsWaVf/+gTnnh/7L+etlqHfL3MljpS9Mr8MePR2lxXMU3JJnhyZJXOGdMbN/Pidl64r3rhv3XNYJi2OL6PRuPI1UjR/wu8x48E1SmZuruyZjbXs7QmLZN22/dL7gduk9BX5vR3C9f6R46eky+Cpsn3fETP33Nkzm3hIxNHf2w/K2i37ZO+h48ZKh8AZ2LFegv537T8qa7ful3Pnz0uGdGml/FUFzJhom3celI7vTjZWvhxZMsqRE6fltvLFjfh2L73jz7bOySHeh01cLmNnrnJZEt2tuFg2EfiIsz827ZV3v14sp8/Glx+xYhbmCPViBXKav1//tEbGz/lDWtQoLa1rl3V9HhCSL30y11iLaYhWkmKwZr7SoZYUL+hfuMMnk5fKa5/OlttuuEqWrt/jyty1c8SNyvUpmgr2Y7W0RhyuCc7avb5+cPnOEvvIdbNQoUImlCftv7/HXPsoCcdvAPzCsS1btsysvMIKJ4HehAd7ft7CiojVt3UlWYaTguSBNq/ir2PHjqaKuG3X128nlZo96fW4CKvJ73Y2cX4Vm3byuj0bHN2/S34a84psX7PE1OfLnOMySZsuvSAksdAVLlVJarZ/WbLmuuSy2fvPWmNFPLov3sJCK3D19XL29Ak5ffyINHlqmOTMf8kqc3T/TuOKPn5wt5Sve7/kKniF/DpllJw6etCvxJBTx4/IJ91qGkFgs6xI9sANh1hKly6d+et88BoPvjCenru/5v4BtYG7tm+7vfv/ncfnPb6ojJMPvrPYMnEhuA4QCrgVuOPo1auXCWLmS85akIgLakI593NWi3eeWLJgWRGG41vxx/uICmvZo1/M2vx98sknTYwKhVWxljmLQSMq6aNo0aLmPSzQbMsqKjSsaFiq3Je68bV/XKdUSbersnDHZcs5MD5qNsLu4MH4ZAXcrmRYsb5iYjF/xNhYkz1Zwdxte4rfYHH2QJZ/cv8y4YrG8kefBIVzcSZJBEHLZwYBiqUSoYtrmHOJaEYcYqm2QpbMbJtRxjGw2Mwd5Ht8r/u4rOWPeoEIGPdyL4i3Vz/7SaYv3SBvd6wnlUsXNV04hWF88sONsmTNdvnmpzVyd/VS0rNVfJIYJVO6vh9fgP6RxjcZa19iJWUQb4iqKy/PlWAbTwISN/WQbo3lp9/+kZtKFpTriucTBAjxi9XKFZOeLavI/z6aLfN++8ccu3LpIvLGY7f7HEe4bc9h09fug8c9XhezZEovxfLnlGrliso9NcoYAUhjrJ9M/VVGTFzhEl28ftM1lxv3cc5s8WvC4jaWNGnk2InT5ji3XFc40Zg/f7a1YxgwboF8//NfRlQ2q36dTF7yt7G6PtP6VmleIz62l2QKyqjcX6+8sdZh3WxVq4xkzpheuBkgk/y5EbNk486DMqLHHTJn5SZ5Y/xCIwIpMTT4yYaGO5ZfyuIsWLVFShTOI688WMv8DcaPd8e3vpVJC/90nQMsgITEBCOY3uOJTcUXub7ZRJZrrrkmQRy/t2ERd0zsNq5wu5II13hqBxJrTOMaTZkbro8pFVbkbdzu72OgQACS7OJc/cTffkKxPTfvJBBh4fOUUOgU7ykm/ohzshYaJl2u7n1S5Z5LS0AlBmLzbz/J9KFPiT+lYayrNlP23CZGsEjpyuZLfvrEMflj1lhZOe1TEx9Y97EBkiFzNrFC7vDuf+Sayk2kyL+Zw3s2/C5r5n8jmXPkMQWes+WJd8VSbmb2R/+TbX8uThCDSGbwbzPG+FUShjGN6lLd/OhigeIHC1GHZYUx+/JgTElt54mts3aTFYPOPpx92rGQJo6w4u6COlbEi1hxRowiQgorHaVFyCAlpoAvCmKGhkUM9weNWDc+pARIY9HjQsIFAXHGBxgxxWfGk/jDqsbNBDGkfIBtQWyORxCrMyuYOndkN/FFtbFoiBSecxGzSxUxXisu/enf3ml16tTJJFQgcFlLk4KqCCWOSxydbfbixrJKCCRPos4KT8Qdlfepx+RpZRMYOdfLDubFBCGIRRD+WABtEDufBfghwhF+fGYQt1hvsQry2eUccE5ty5E1o8we2C7Zw/Mm/uj472375YlBk6TMFfFWvYwZ0sniP7dKj6HTjUgY8FhdI0J3Hzgmj7z9o0kesckLO/cflS6Dp8imnYcEqyAWuKsKeXYB2oSGzk0rugTKuXPn5YMflsmYGb9L+rRxcl/d8qYfEi5KF89rRAcxd8QrHj911sQvXn91Abm6UB5jsUSYYqE7cfqsDO3W2NQ19KVZ0ZohfVpT6y9vzsxS4drCUv6q/JInRxaPLlGEHzGL3y1Ya0TXE3dVkEKXZZe/tx+QTu9OlkaVSkqv1lUTiCL3mEuEV2LN122/mrfaiDTK0jzTppoZ6+pNe8wYOjS4Qdo1iI/f/um3zfLU0OnmOYkr9jw6j9/nk7my8u9d0u2eyuYmACtmvlxZjYXvybsrmr6cNwKEIVC2pmXN0kEpIN7z/Yny1ZzfzfcC4cd3NVpLoHDjSh1PGjfR3lYngTthJdzoOrOcMQzQF9dDkmLsddBeH4k35nrOtSXcGr9pXHe5tqd0WR5vLHDJYyxw/tY69+E3l/AeGr+NwVhMwqvl76GHH5bfVsa7R2nl6rSVKi3jF4hOqlnL37VV75SqrXv5dKc2f+zrsnb+N1KrwytSomLCFHo+jL9N+9SUb7HvJxZTuHrOBPl5/BvGeuh0+275Y6ERpGnTZxDGVaDEDbJvy1r5Y9Y4ubzkjXL7Y2/4HPt3+sRRY/nDvcePLT+yuAqxAvIaf+0DcWh/hL1xC8X7ZPjyRebCRvIFdeKsOEPg4La1i35TA8oKQEQQFjgyi3CFIhgSu0PBykTiA+5YvlyICS4SHMuKM5IUcO1yYaDsDGILEYbFiRg1LIrWQsgHnP04Li4YLi5cpJ9//nmTvIKw4e6T7e2c/OnfWumwimEx426Luy6q4XuqTWgvblginZZM9/PFAu+4d8nconGxxBpK7J1tWEjJ3A11s8Ve3Yu+2uNyocbdjjWQBlfu5m3DrTbzbf+KPDvnZAUFrw3v0UTy5/5v0oIVdYgILEBYhJ4eNlMWrt4qpYrnNYkJGdOnk7GzVpmSMa89XCdBggQu0FfG/GQsg7hOyWwlk/gKtzg6a21rfltpebBRfDkmKzJ53rdDLalz8yV3lRVoNW+4wrhMt+49YjKGT589J2fOnjduZSyAxLVRLgSLFK/50myJEX/2mbx4vX2c3moAACAASURBVPT5dG4C0cWxbF9Ywz58qolxhdrmi/j2Z1vi9qgbuGnXISNaG1cuKSdPn5NPp600Atha6+jTCkI+e4M6N5Ab/1+0O5u16C1du10QwfHu7fpCVDjWynJXFXDFiWK1nbhonbz95SITApAvVxZ5/I4KJnM7kFVkfvt7lzz05g+uYXEja8tp+HIeI2mbJk2auNYfxi2bWIFort9cR7kWW7GBMMby9NhjjyWauOfr9TE1mYVz6TEr/sjs9lRH1ine+X2ikHigzav4e6Bde/lz9R+u45Sp1Upubd3L63HPnDphhNbujaukZruX5KoKdb0KQCx/m3+bl6gFbv2SKTJn1ItCrcHSNe4x7l5KrjR56kMT50cjnm/Ke53l6L4dcvHiBSlZubHUeKC3eW/e6L7G6nfFDTXl7yVTTMFpGtbE2g+96rIQep3cvy7qcc83MXemiD2EERY0W1sJsWef2x9fX/oNxTYkJBCPQSyaLbhsxR/uQb7w3A0iXGztKO4sWKsY1yxCzgoegk4RSTy4S3G6X5xfLtyJuAGsWOIOEVcoVj/iFbBA2ur4lCvBEohQtM2uDoKVigfWSjJdaWxHbB0XMGsxJIjZn/7tl43+uIO1WX72dfdVSTxd3Div3OUSz4jl1DZPd83ECiJcEYGU3cE1C9dguK/cPzOcT9zVWDSxRiJu7XJPbItoZhwIfoS/jZscMGCAfPnll67u8mTPLNPfuj/ZH0kSArD+YN3B7Vu1bMIiuMSOvTVhkbFmUQS6T7sasn77ASMwqpYpKrsOHDOlYXAF4grFGkQCgTszeJNFPGLicln85zYhnxXrWOemt7hEoKfkEyxp42f/YeINO99dMUG/uCrfGP+zPNe2mrEUWsvh0RNnTMLE2x3rG4ukfb19/UtWL2/AbJkXmNz2/2VYvLWTp89Kzw+my9GTZ0zmrxV4uGxJ2MBShnh2Z+xJ/MFq1ORfzdhb1S7rOrQv285budlYQ++seq38tmGXbPi3fiPjoSTNreUunV/LpWSRy+SdjvUlq1tGt/1skIWdPUsGGdylkbG62tcZmHuoAG7sb+avlXGzV8neQycMBz4TyRWBcGv/+neXftvKlElg+fZ2XiLp/bp167qWhitevHiCJE7nPJyhK1jHCAPi2uXJ08F+9lrDdYZrIMYCXKoky9nfPa4xCJbE+gg1R65/GGjwuNi4fAwydh1kDADc9KZmObLEfncsG6d4TzHx1/be+2TdX/Ep77QyNVvKrW18K3K7Z/OfRgCSVcuScNfXby/ZL7vkSnM/6Qu/eEv+nPeVcclefUu9BG/v37beiL3zZ8+Y2DziAekbgVe/4zuSIXNWOXXssMwa8ZzsWLdMbqjf3vw9c/K4EZPpMmZ2jYX/IxZPHT8s6TJk8tna5xwQBasnvBS/vJt1+SZ2NxXqD7e3/rGYYWlCsNk7Cyv+cPWSCECgP6s7IBhwWY4ePdrEArKYNKLLuoutKOOYiD36pH8EMNvCAAujFX/EG+JK5AebiwMXBQQoYg6BgvDwlOnrPA6uB2uuR7hwd47VkGzabt26mdg/4i396R9raL9+/czcETy2RA+iDDGI6LWubuaKex+rJc0msOAC546M0gmIUBv87DwfuMSxXsLEJrYgihOrxu/tXCb2Pufzjz/+MHfruHeI/cMNzkWOc8PYiPnjQs4qNFh8eTgTZhDATrfXZTkyy7Q3ky/+DKt/69nZIH+sODsPHDM17T6fuUoOHTtl4vAQNWSUWnfh061vlZa1yhgxcOrMOcmZ1XOmrzuP7XuPyMjJKwRLGYKoa/PK0qJmaWMx6j50mkmEwMJIwoAVeBwflzNxaYePn5bvFqwxmcjZM2eQYU81kSL5c8rPq7aY/UkmcVqysIbhjsYd3PuBGj6J+X5jfjKC11fxZwXRwaMnjXuZsVuLJ8Ia4Txp8XppVr1UAtfv8ZNnzJhpVoDZ8V5XNK+xVtoi0r5s+9mM342b3IrMoydOm9hD90xfjmfF37VF83qM97Tj2LL7sDzU6EaTnGNFPXwQhYlZi3GBz16xSYZ+v1S27T1iRKMzEcjX79CKdTvk0bcvLV1KMWeuJdHYEGCEo9C4IbchPe5zZe1gyoFxbUb8YQEkQcRT4/rCb4an5BGuKxgdCCnhWs21h2se11r65T3+T2Y1N9Z4IbzF4XENpl9P11lbkovPENUj7Db8VlCr2L2xHb9zlMZifHi73BMb3fdxPz7xg3iu8GLhzbLJMFhWeXgaZ2KfLW/iDw+SLT2UYuLvnhYtZfOmja4xkxFbrc0zPn8/nJm1l5I4MsipYwdN4Wfi8hp2eV/yFr3GZOxOeY9kkosut+yxfTvMUnA71/8qmbPnNq7ZgleXN4Jrzse9ZcPSacZylyNfUdm5brkc3b9DSlVvJlVb9ZQVkz8ypWZqtusjJSs3ksVfDZJVs8bKLXd1NMkenjKHfZ0Ywva7/pdcYsRUORNjfO0npbZDlJHAYWMKnOKP+Ll69eoZSx0fcAqKkrVFQ4QhvvjS8gXl/1gQeU4sKCKOLxAihy8DcTPcRSEIEUuISVvnzy5RY12sSX05rPijkj5WQb7AuJMZP4KTL6+N20OoITz96d+KP+bOl9c27ly5+GEJdcauWF4khTAOXPzDhg0zLGwfWDJxUfPZtMLS9gsfxknZGMSvdbUGev4ZD8HYZPJZy60zCQnxzcUN0cdFnDphWCo9xeS4iz8SNSb2b+vXEJk7ImXdtgNy9tx5OX7qjMnqpVwLjTp7WPJoWJ9w6xIrli1LRvOazUDF/Ysb0D3r1jkYXIeUTGEpUwolO4shIwJf/HiObNh+QAZ3aShYoLCescrHyF53GjfjsZNn5JlhM4zL2FMjucPGIVrxR9KCs4SMdV8iYt97soHkyHrJ7ZoYOGLdcGPauDZfAA/7cZlJ9EBoYUVDPJ09f0GIYWxUuaR0GjTJxCVSOsYys6Lxn92HjIgtlDeHjJ72mwyfuFx6tqpikkls82Vbu27z9VcXlP6P1HElmHgavxV/BXJn+4872nwO/hXNZO6SEUyso21fz/vTLH/3ftdGJu6T4/b+eK50a15Z6la46lLJsPMXjFCnJM7t/++yx3Jsywn5whS3f+d348tn0LCGR+uat5SksmWnuCY4VzFxZ8UNJBY/m9yBSOK6y5rAzms2ApFEEkSJrYaA9YzfD64z7s16T+iH3wDcm1zDaQhCrqu4mDkH/B5hobSNygscC/cz11jbbOUJxsdvF43fIOKyuaG3vwn2esf23LyTmOKp4fny9fi2lBm/jXhz+E2xjf9TZYGGMOW3EsOHnaszU5rX3H9n3cdGXyRo2m1TJObvzqZ3y45tW11jwd1are2lJaB8+ZJRvgX375/zvjRu19PHD5vyKpcVvUZwI1998+3Ccm+cmE0rZsvyicPMUnAX/624TgIIMXo3NOggGbNcihsirnDqkO5y5sRRM4z0mbLITY0fkXJ12pj+bJFp1vWt2b5PggSR4uVvk+uq3S3Z8xaSvZtXy99Lp8nOdSuMkKz3xFumRE1SjWP/8GbC1Q8QP+Ha+CIjavgy4AIwtcZ69zaxgFj5yPzENcyFwWZwMRfuZqh1hwuYDyAfUrJz+YLgMkbk2LImWMyIb8OaRv9kD+Mu5m6aOz1nQgRiBNGFiKKAMmtqcjfKRYovLkKa5BC+RIgX7hC5UFB+wd6h8aViXLjYyTDzp3/GjChF8FLby9m4CDFuuHAXaRsimLk7G7GK3InRB+IPEYqVlYsYc7R98x6vc4Fydyn7+5nBmod1j1pd/EX0kY1szwNucWI3udu3gg/XBmNKys1M5jSJQbZR1uS7fq39Gt5f/1+mhOB/xJB7IyYP694NJQpIg4olpcK1hf6T3OAM8KdUCcKQhIFDx0/JotXbTFYpWbJYstj/hVGzZc6vm42QxFWcNXN8UsPZcxdMhijjsBY2BNSv6+Nd0DYrGNEzYe6f8tPv/xhBgkiMS5NGZv+6KYE4w9rEWrAcw73g8q/rd0r/sQtMxq0vZUcGfbXYxDBSpqT+/7u7fWkI1d6j5siCP7YY8UzcW/d7qrjE0KzlG40QxmJ6V7VLqwxZ0YgV9ML/f+fZN7EEDG/bwoBM32/nrzWJMPfXLS/lry4gO/YdNfxghhBHzDE+Pgdp4+Lk/S4NXaVonHP9Zc0289+KpS5VY+D/uLN7fDBd7rr1Ornz1muN+Os6eKoRu9cWvUyoG2nbP7sPm7ACEoE8ZZQnxXb+7/9I9yHxllEaN3zOmFdfzkukbIO1nxtxGl4Zb4YKrq2E+HBza0Ugvw24Tok3syIQdyrXHqpcIMxw7SYWE437lWoIXIvYnhtW4gjLlCljxsQNMb8DeHNYRYVru23WHY2nxVZbsELOrkqE5ZaxIHJtIiBGiF27dpnfJPbj2pvUcqPWm+TL8fnNYVUvkjGwkHK95/cEIQxvWHBzzhwRr85G5jSx9PZ6bH9XExsbv5/E1dNSLOGjYeMmsnf3Lte4S93WXKrf+18zarC/BJxYRGK6DJklXYZ4q4CnRr293Rt/l8zZ80juQlf9x4VLQekLF867Xj9+aJ8sHP+GbP5trktc0q+tJ0hZGl9WHNm+dqlZpcTZwln8MU5iHPjS+WOOdmfu/iFF1CA6PLluuTBwkeHOEQshjbs/XM9Yq5yNLwFffix8TvHp7+cqlP0jsrCecqeLWR+hR/yis+Yfc8bNi4C1Ysw5B/ZHICcn/oWyO2TeIfpY75M7SZtsxJ02FzyssNxV8n8usozN17hCGxNqx8sP/Fcvt/TrFCCmPpuxSvYePi5F8+WUa4peJlcWzGXiuhIrw+J+AL77M5ZtNDF37iKSQsVktj7Y8AbTH8f7aPKv8uW8P131AG1/iM0WNcuYBBC2xeWMgCBrNKmGq5oVNqzlyS8APmxM7NrmXYdMdrC/a/cm5Wr1dGgSahBS1CPkfD5Qr7zcftNVHhMlfNnWU2kcjsuaxGQft61TTprdVsqIerKxsUaSjBJoQ+C9PWGhrPkn3nribMyL2Mybry3k12FmLt8gzw6f5dqHG6XEllHzq+Mw3Njp9kUI2SXrvA2VmD5u8hErNuuXm3yMCM5rmPWMcI1MrJSK09vENclZ8cGOA28L1yGsc1zLbMMIQEy9U/xR4B7rIeEriDpEJK5oXsOCx7l03thbb5LTKuc+f3+O7wxNomwYTJyuYypHYDhBSPMexhPGg8XQhkchWGnexB8GEEJ5aClW6qVu/QZycP+lLxwu1er3Pe/tMxP277NCB5m+586cklyXXyU58hYy1kJf29bVi/51UV/agy+Urz+0vh4n3Lbz9iH1dby4DLDkIUjJssMC6C3mwte+2S5U/XMxZMzOotWexsUXHkskMTTEqTBHsqeTM0fuGkmUIVh506ZNZm6IbgQ3QpmipbjpuXtG8NlSLv7wYlsufFwYbeNHe3zv+LjW1GgIDerrbdp10AT3Ez+W/V/3sPt42HbHviOycechI+6u+v84wsTKpnibC+Lv6/lrTGygP8uqees3td5H9BI36Z504Wk8vm6Lu3v9tv2y6+AxKZg7m1xVKLfP4j4QDojfv7buMzcFVxTIZc5PYp8Jb8exmdJ2O25SR40a5W23iHwfq5StY+qP+HNO1mnFcreMWWGHdSqx5Ty5qSNGkPe5aeYm2f16iDDiOues+YrFEpfvP//84xJ/XP+wqJGZjLsVb5a3ZsVaUp4XX4/PsWzyo3vcuP39QfgRZ+kMo7LWT377XnvtNVddWNzgcEnM8sf13dacTTHxV7vO7XLk8CEX12gRf94+KN7et3UMnduRPBGIVc3bMcPhfb5AmLi5u6PmnbbQEDAZrKtXm6QW4nNwXXDh4OaCBBPuiomdYSk3BB9CMKnVO3wZJdZKXNi2YbUb+0JzX3aNmm1MOMTHc1yuZV8EU9RMPsYmMnHRX9Lnk0vLvOF5II43GhsxYnaZSixl/Fa5N25Y8V4R+5jYWuzcfGJ9I67O6d5NTPxx/SJkB3FD3B3iit+OxJIW3GvxOcOHGK+1/PkiNt3n50n8EUdHiStczITL+Hp8+rZJGrh6bSk0e0wbY0/frO5kG3PnGDSSYRCueGe8laHBqmljGlNM/NWoWUuOH4uPqaOVqnGPVPcz5i8av0wbV8yWmcMSZj0TKBuOxS2DyZ8vM25LmwASzL61r3gC3OmSfc2yita1i9DGdUPsB4HMxCImlriRXI7ua/uWLJJHxr2Yepa/5M7D1/34Yflo8gr5YeE6ef2ROmYJNZv1WiB3VlP7L9ot+b6yisbtyAhH6NvGzRTW72hsCBTiu2mJJXxYwYIIIl4bj4LTMoflCasZlQ1IyICVXTfcWvX4DbR1VwlJwUKIULMuWCv+ErO+Wbcr8XkIvcmTJ5vYb2IFcfMS0mIFOpY/xkwiHdt4C6Wxljqn8ER8UeLKJuH5enzmbcWf0xVtPzv2PTgS6oPHCKse5b64eYcXwpPXcP3ChXCexH5XU0X8Vat+m5w6ecL1ffCn1Es0fonsnDYsnS6zRiZ0f2OhSY5bL5I42SLPxDDYpcwiafyRMFburslew81BVhqxIgSj4zYmZiRUnzHiMO3yeXAqWTiPjEtFt2+oz5Wz1hzry/Z/uI6QQPDyp3Pl0SY3u1arCPU4tP/UITBt6d/yv5GzXQfHEsOqPNHYsD7ZJI/ESr04Y5qTYsDNJzeKhOo4GwIG4UcSBPHHrP+OmxfxQ7weN1JW/Dldns4+KFdF/Bwxe8SJU32BJD+uS/RFGI1doQOBhQC0dXbd1y5nnsQq2vqxVpDZGrWIL9bMtUvVESft7/FZlYPrM4LUCmHmQ5IMsZHE6TEu3NR4biw7xgIThCuLAnCzT6xjYqKYUmawoLEtdf8CbV6LPN9arZqcPnUpc69M7dZya6uegR434vdft2iSzP3kpQTzwFJDQkU0N9yP3OnwxU9qpYtoZhDquXGh4EKMGwaxZxM3Qn1c4lCcxaqjXfzBkxUm+o6eZ5Z0s40EAjJUC16WPdTItf9UJEC5Hcru2EZcHOWOorFxo25r+yVV5BlrHdY0sp6pwmDXIMejRTkWKkZQpYEasO7thx9+MGLG2dyFIsIQIYe1jTg+T43jIohwc5IAiNAhnMpaAQlP4VzRiEOkAgO1Bp0JdowXYYjYtDfLTkFmj+sp8cTX49uaiFRWcFpBbd/cTMPDLmZAnCOZyYhBxC0idP/+/YY1opNsacqjYS10b4hpfntpWF7JFA60eRV/latUkXNnz7qO4+vyboEOLNz3/2vRRJn3SZ8Ew4wFty9fMErEEJCbVMp8uJ8/Hd9/CZCdxp2wbdTam/fupZVLopUZFsDB3/4iX/+0xkyxT7uapnaetugm0PODaTJ35T+uSUaz+MP6ZhchSGp5t0DOOO5d3K8kYSBwuJa4C0VuaBFXuG+9uWk9jQXRREJbcr0fWNb69u1rwrOaNm1qxutcetPb/N2PT+UHwm/craC2H1t8mpt4p2XQ/Ti4gSnbRV8UxHZveIBsyR3iCxl7oM2r+CPF2Lku7fX1HpBKzS8VWQx0AJG6v11qzjn+WBB/zJe7Q+64WFIt2hNcIvXzmZxxI+ip9eds37/aWgrnTVgHMTl9h/s+XHz/3n7AFH6msLDG+oX7GQtsfGQN1+r+aYJOiKd1r+MZ2FHCZ2/neuKEkJBRG4rG9wgRSAJauH6H+P1CPCZXQIaCm7c+WezALm9q4yG97ePtfa/iz73m2k2NH5YKdz7urd+of3/9L1NlzkcvJJhnLGT7Rv2JjeEJjhs3Tt5+++0EBPo9VNssH6ZNCUQTAdZ0Zm1nZ2MJLVbricaGhYuEAhplp0ie0BY5BCiszdKjNOJSmzcPvAqD3+Kvwp1PyE2NH4ocaiEa6YZlM8w6ws4WC3X+QoRTuw0DAlgDyOR2tsaVS8rLHeKXKdKmBKKFwD0vTTCFtp2NeNdOnTpFyxQTzMMmWvAixaw9rccblROPkkk5s7Xdy8ckd4pJij9MuAQzOlul5l3l+nqBLfae3MGG034bl8+SmcMT/lCG+wof4cRPxxJ+BAg6JjbI2S7LkVmmvanf9/A7Wzqi5BJYtXGPdBjw3X92Z+WhYMRSJXdcodyPOnt23WLCdawVMJTH1L6DR8CZrU1WMIk3gbYkxR+1acgycTbW9WV931hvm1fOlekfJMx6VvEX65+KyJ4/wcn8+NllhOxsBnVuINXKFYvsyenolcC/BLoOniI//3FpvXpeJj6N0iSskhONjQxbMm1prGTCOu7aIoeAM1s7qUxpf2aUpPgjs5PCl85W68FXpGSlhv4cIyq33bLqZ5n6flfX3MgeIuFDmxKIZAL8ANqF0u08KH3y5uN15crLc0fy1HTsSkAW/7lNOr87+T8kCKjnRzVaG99pSnPRWCqMenzaIocAIQks8UkjKa9t27YBD95v8Ve/0ztSvHz1gA8c6R3sXP+r/PjWI65pUN+POn/alECkE+jZs6cp1+De2je4QR5ufJNZO1ebEog0AmNm/C4ffLdUzpw7n2DoLK+FS5SlEqO1IRjs0o0sY0ehZG2RQ4CahTZOM7EC2f7Oxu+Ej0ZdBkv+q8rJhfPn5MKF83Lx/Hnzl/9f/Peved3tvTRxcZImLq3ExaUV8zxNnMSlTed6bt5Lm9a8znO2id/20vN0GTIlOb9zZ079O44LcvHihf8+v3hBLl64ED9u8/jv8zg7rrSMJ13CR1w6SfPv64d2bJQfHOKP2kPz58/3l79urwTCjsCpU6fMskzUsHJvGdOnlbJX5pdyV+aX8iUKSvmrCkiubEl/L8NugkkM6PTZc3LxYvwGxDxfuHgxwf957yL/HNt4e41+2Nz8de7n02vxx7twIX7HS8dy9mXHlPhradLEuzbjeCIicXFpxPwzr4tw3bPP/7td/L6e+7j0Hn27tpM05hjmWI59448Vvx0tVDcSp86ck9Wb98jKv3cJMX78pYyPp0YAPWtlR3OjhA0lQmjE8VOjVVvkEKBYNEW0aayu9cADDwQ8eL/FX8BHjNIOKM7oyVoSpdPVaUU5gUOHDpkK9La2VJRPV6eXAgSoFxsXF5cCR/LtEFyzcfW6x7X7tndkbYXL14ZzEMplkz8iaxaxO1pWPLGC3a4XHCgNFX+BEvx3/1y5cpmFnrUpgWghsG3bNnniiSfMUnPalEAgBEgePHjwoFlZgWtlajcEEEuHRbOr18kYNy/lXmi33nqrjB07NrVPgR7fDwJ8Vu05Q8Q7l+H0o5sEm3oVf2T/8SOgLWkC119/vVmUWZsSiCYCWAApgaHJTNF0VlN+Llj9WMeUxsoKqSkAcaGxhmosNWp42qUbWcnk888/j6XpR/xcX3rpJfnkk0/MPF588UUTlhNo8yr+sGa99957smPHjkCPFbX7s1Zily5dhC+VNiUQjQQIaSATmELmLN+kTQn4S+DkyZNy7NgxsxsuV+KkU6Kx1FiVKlXM9RmrV+7csZe1ThkyuypEjRo1ZPTo0SmBXo8RJALEpQ4ePNj0RtmeRx99NOCevYo/5xH44p45c8Y8CAq3z0+fPm2CmYPViAvh7hAXgf3Lc+f/eT05C0MHa4zajxKIVQL79u2TXbt2mWtAII1SUp4euAidrzv/jwWJ/3O9Seov2/n7sP0F81oWCJ9o2JfEDtb/5sF1ffr06WZtcKojIEbItOW6brdx/8t1nm0zZsxotuWv8+GNEftQ1DjWG2ux33777QZD7dq1XWVfYp1LpMwfqx/WPxouYOKxA21+ib9AD6b7KwEloASUQOwSYGUJ1pmlPfXUU9K166VaqbFLJfQzp3B7xYoVzYEQgRqiFHrmwTwCXhe79CBLcNrvUCDHUPEXCD3dVwkoASWgBHwmgFUV8UEWOZ4bYklz5szp8/66YfIIYKW/9tprzc7169eX4cOHJ68j3StVCPA9adWqlTl2r169pHPnzgGPQ8VfwAi1AyWgBJSAEvCVwLRp01wxS1gwsGRoCz2BK664woRLNGzY0FXwOfRH1SMEgwA3S6xCQwuWxVzFXzDOjPahBJSAElACPhNo0KCBrFmzxsTvYdXIkyePz/vqhskjwMoexOs2btxYhg4dmrxOdK9UIXD48GGzJjOtW7durrI9gQxGxV8g9HRfJaAElIAS8JsA2eO23MojjzxiyglpCy0BEj02bNggd955pytzNLRH1N6DSaBEiRJy9uxZoVQRS3AG2lT8BUpQ91cCSkAJKAG/CZDtSwkSrH+LFi2Syy67zO8+dAffCdx9992yYsUK4S/LvWmLLAIk7JC4E6xQCRV/kXX+dbRKQAkogaggsGTJEmnZsqWZC0VrKV6rLXQE2rdvL3PmzDEldgYOHBi6A2nPISGAu/6PP/4wqy49++yzAR9DxV/ACLUDJaAElIASSA6B++67T+bPn2+sfwsWLJD8+fMnpxvdxwcCLETw/fffS4sWLYSiwdoiiwBhEoRLUOCZQs+BNhV/gRLU/ZWAElACSiBZBFatWiVNmjQx+/Lj1rdv32T1ozt5J4BllZU9WrduLQMGDPC+g24RVgTI8v3666/loYcekt69ewc8NhV/ASPUDpSAElACSiC5BEj4YOUPVvNYuHChWv+SC9LLfm+//bZZqrVp06by/PPPm2UaebDiin1QD5Bl+OyDVbxYbceusuPvX4ZkV3dxrvTi/pzVX5J639kHK8Kw6otd+cWu+GL/z7KBzhXB+FzZlcLYxq4UFmmrhL3++uvywQcfSIcOHaRPnz4Bf0pU/AWMUDtQAkpACSiB5BKghhmFn6lBhxv41VdfTW5Xul8SBEaMGCH9+vVTRhFOgNjNl19+OeBZqPgLGKF2oASUgBJQAoEQYJm37777zlho5s2bJ4ULFw6kO93XAwEyq++9996A1+RWuKlLoH///tK2bduAB6HiL2CE2oESUAJKQAkEQmDLli1So0YNuXDhgvlh4wdOmxJQAqEjoOIvBZvUEgAAHd5JREFUdGy1ZyWgBJSAEvCRABmMn332mYn9IgNYrX8+gtPNlEAyCKj4SwY03UUJKAEloASCS2Dv3r1SvXp1k2yg5UiCy1Z7UwLuBFT86WdCCSgBJaAEwoIAK0+88847kiZNGpk5c6awpJU2JaAEgk9AxV/wmWqPSkAJKAElkAwClBzB+rdv3z5p2LChfPjhh8noRXdRAkrAGwEVf94I6ftKQAkoASWQYgSI+7MrGEyZMkVKly6dYsfWAymBWCGg4i9WzrTOUwkoASUQAQQoJEzdv40bN0q1atXk888/j4BR6xCVQGQRUPEXWedLR6sElIASiHoCxPuxjBVtwoQJUqlSpaifs05QCaQkARV/KUlbj6UElIASUAI+EWjZsqUsWbJEypQpI5MnT/ZpH91ICSgB3wio+PONk26lBJSAElACKUhg/fr1Uq9ePVP4mQzgZs2apeDR9VBKILoJqPiL7vOrs1MCSkAJRCyBF154QcaMGSMFChSQn376STJlyhSxc9GBK4FwIqDiL5zOho5FCSgBJaAEXAQOHz4sVatWlWPHjkmvXr2kc+fOSkcJKIEgEFDxFwSI2oUSUAJKQAmEhsBHH30kffv2lcyZM8uCBQskb968oTmQ9qoEYoiAir8YOtk6VSWgBJRApBGg9EvdunVlw4YN0rZtW+nfv3+kTUHHqwTCjoCKv7A7JTogJaAElIAScBJYtmyZNG/e3LxE5i8ZwNqUgBJIPgEVf8lnp3sqASWgBJRAChHo0aOHfPXVV1KhQgX5+uuvU+ioehglEJ0EVPxF53nVWSkBJaAEoorAgQMHpEaNGnLkyBF56623pEWLFlE1P52MEkhJAir+UpK2HksJKAEloASSTYCyL5R/yZUrl8ydO1dy586d7L50RyUQywRU/MXy2de5KwEloAQiiMDFixeladOmsnLlSmnSpIkMGTIkgkavQ1UC4UNAxV/4nAsdiRJQAkpACXghsGnTJpP9e/bsWRk1apTUqVNHmSkBJeAnARV/fgLTzZWAElACSiB1CQwdOlQGDBgg+fPnl1mzZkmOHDlSd0B6dCUQYQRU/EXYCdPhKgEloARinQC1/xo0aCDr1q0zbuB333031pHo/JWAXwRU/PmFSzdWAkpACSiBcCCwatUqE/dHI/bPPg+HsekYlEC4E1DxF+5nSMenBJSAElACHgn06dNHPv74Y8mWLZvMmTPHuIG1KQEl4J2Aij/vjHQLJaAElIASCEMCp06dMskfW7ZskcqVK8v48eMlTZo0YThSHZISCC8CKv7C63zoaJSAElACSsAPArh/77jjDqEMTM+ePeXJJ5/0Y2/dVAnEJgEVf7F53nXWSkAJKIGoIUDmLxnAWP3Gjh0rVatWjZq56USUQCgIqPgLBVXtUwkoASWgBFKMwLlz56Rx48aydu1as/rHzJkzJV++fCl2fD2QEog0Air+Iu2M6XiVgBJQAkrgPwQ2b94s9evXF+IAb775ZpkwYYKkS5dOSSkBJeCBgIo//VgoASWgBJRAVBCYOHGidOrUycxF6/9FxSnVSYSIgIq/EIHVbpWAElACSiDlCTz99NPyxRdfmAN37txZevXqlfKD0CMqgTAnoOIvzE+QDk8JKAEloAR8J3D69GkT/7d+/Xqz0yuvvCIPPPCA7x3olkogBgio+IuBk6xTVAJKQAnEEgHq/iEAjxw5Yqb9+uuvS5s2bWIJgc5VCSRJQMWffkCUgBJQAkog6gj88ssv0qJFC9e83nzzTWnZsmXUzVMnpASSQ0DFX3Ko6T5KQAkoASUQ9gS+/fZb6datmxknNQAHDhwozZo1C/tx6wCVQKgJqPgLNWHtXwkoASWgBFKNwPDhw+XVV191HV9dwKl2KvTAYURAxV8YnQwdihJQAkpACQSfgLsA1GXggs9Ye4wsAir+Iut86WiVgBJQAkogGQTeeustGTx4sGvP1q1bm0QQ3MHalECsEVDxF2tnXOerBJSAEohRAu+++66J+7Otdu3a8sEHH0imTJlilIhOO1YJqPiL1TOv81YCSkAJxCCBMWPGyAsvvOCaedmyZYXX8uTJE4M0dMqxSkDFX6yeeZ23ElACSiBGCXz33XcmC/jixYuGQKFChWT06NFSsmTJGCWi0441Air+Yu2M63yVgBJQAkpApk+fbtYBPnPmjKGRJUsWGTJkiOAK1qYEop2Air9oP8M6PyWgBJSAEvBI4NdffzVLv9mVQEj+ePbZZ+Xxxx9XYkogqgmo+Ivq06uTUwJKQAkogaQIsBRc27ZtZevWra7NGjVqJCSHZMiQQeEpgagkoOIvKk+rTkoJKAEloAR8JXD48GFjAVy5cqVrl/Lly8vHH38sefPm9bUb3U4JRAwBFX8Rc6p0oEpACSgBJRAqAsT+Ufz5+++/dx0iX758QoHom266KVSH1X6VQKoQUPGXKtj1oEpACSgBJRCOBEaMGGGWg7OZwOnSpZPevXtLu3btwnG4OiYlkCwCKv6ShU13UgJKQAkogWglsGDBAnnkkUfkxIkTrik2adLEFIjOmDFjtE5b5xVDBFT8xdDJ1qkqASWgBJSAbwT+/vtvY+3btm2ba4dSpUrJyJEjpUiRIr51olspgTAloOIvTE+MDksJKAEloARSlwCJIFgAlyxZ4hpI9uzZzRrBtWrVSt3B6dGVQAAEVPwFAE93VQJKQAkogegmcP78eenfv78QC+hsFIju0aOHpE2bNroB6OyikoCKv6g8rTopJaAElIASCCaBKVOmSPfu3eXkyZOubskCHjZsmOTPnz+Yh9K+lEDICaj4CzliPYASUAJKQAlEA4ENGzZI+/bthcLQtuXJk0c++OADqVy5cjRMUecQIwRU/MXIidZpKgEloASUQOAEjh49Kl26dJHZs2e7OouLizM1Ajt27CgsEedrmzNnjikkjXjMmjWrr7vpdkogYAIq/gJGqB0oASWgBJRArBHA3TtgwAAhJtC2KlWqyNChQwVroC/t4YcflhkzZkjr1q1NX9qUQEoRUPGXUqT1OEpACSgBJRBVBJYvXy5PPPGE7N692zUvloP78MMP5ZZbbvE611WrVskdd9xhCkqPHj1aatSo4XUf3UAJBIOAir9gUNQ+lIAS+L/2zgPGiur741eK7ho7GrvYRaOCDWIBRVZQ1gKCGDuIyqqroFjABiggKgI2TIzAYkGx64qiQiyIYmEFYwsmYm8gEliR5vrL5+Z/3n/28fbtzGNl35v5nmTyytwp9zNvw5dz7jlHBEQgkQSWLl3qw72zZ89OzZ/QL6Hh/v3715sNPG7cODd27FjXokULH0reaqutYsdx5cqVrqamJrUhdrN9Zp+NwbOaPj64384THAN/QvFswfe5fA5zTFFRUcE9M4m/gntkumEREAEREIF8IoDwuOeeexxCztrCcX+HHHKI7w2cLRsY8dKtWzc3f/58d+KJJ/rs4YawVatWuWwbgizsmGxjM+1bu3ZtQ0yhYM/RvHlz3wmmrg2xmGlfXd9nO1dwH8dvvPHGodadSvwV7M9LNy4CIiACIpBPBObMmePDwEuWLEnd1hZbbOEeeOAB16FDhzpv9bvvvnOdOnVya9ascXfddZfr1atXztNasGCB6969u6uurs75HP/FgYgU88atr1eO2op1eeTYV59nMJO3MMwxmTyQCOh8M9adlpaWZr0tib98e2q6HxEQAREQgYIlsGjRIldWVuY+/vjjWnPo27evGzx4sMMrlMkmTJjgbr31VldcXOxee+0117Jly5wYvPDCCz7c/F9bNq9WXXPM9Z4QZoR/c93wTibJqEc5YMAAib8kPXTNVQREQAREoHEJIFbuv/9+v5aP92b0Biasm0nY4VU67bTTfPj3oIMOcoi4Zs2aRZ7IlClTvMhs3bq1fzVbsWKFo0wN27Jly3yxal7xEP7111/+FZFESzs+s/E+joZwJTzKhlCt6xUvIvt5Dukb37Of7+29eTftmOBr8Dz2nus2ZIeYMWPGuA8//NANGjTIe6CzmTx/cfxla04iIAIiIAKNTqCqqspdcsklDm+gGZ694cOHu549e65zf99++63r3LmzX4t3xRVX+NqBUY2agaNGjfJFp6dOnRr18IzjEYWrV692rOUjNJ1ps30NcsG0k5C0gcgi1ItYsi3KdwizuFuPHj28x3no0KGuT58+En9xf+CanwiIgAiIQH4SwHtGH+BZs2bVukHWZLG+L724Mz2EEYcInsrKSu8FjGKcE69jmzZt3IsvvhjlUI0tcAJHHXWU++mnn9yIESPcueeeK/FX4M9Tty8CIiACIlDgBCZOnOhGjhzpvWZmu+yyi68JGBR4wfDvbrvt5tf/bbrppqFnP2TIEFdRUeFatWrlj5UlgwC/m7322suvi6RgOIXDs5nCvsn4XWiWIiACIiACjUyAos79+vXz3pmgXX/99b5WoFkw/Bu1+8d1113nw7177LGHe+uttxp5xrr8hiLA0oLDDz/cX2706NHujDPOkPjbUPB1HREQAREQARHIRoBEimuvvdZNmzat1jD+4Wa9ntUExFM4bNgwP4ZM4JKSklBgyfR87rnn3K677urefffdUMdoUOET+Prrr1O/ERI/WP+XzeT5K/xnrhmIgAiIgAgUGIFnnnnG3XTTTT7r1oyagHfeeac76aSTfLFovDcfffSR23rrrd3MmTN9F5D6rLy83K8VJKQc7DpS33HaX9gE8CqffPLJfhJkmZ9++ukSf4X9SHX3IiACIiAChUSAMO7ChQt9xw769bIWK5P98MMPvibgZ599Vms3oV4yNhcvXuw6duzo1wnSA5hEjvqM87366qtu5513du+99159w7U/JgQo8WKhXrrN0DUmm8nzF5MHr2mIgAiIgAjkBwETYHY322yzjTv44IPdgQce6Le2bdumvHiUSCFDl8SPoJHsQbiXfr+333673/Xss8+m1nXVNdMLL7zQewl33HFHR8cRWTIIvPPOO+68887zk7333nt9zUiJv2Q8e81SBERABEQgDwgQssXrxtq7V155xVFgOd3IxqU0R/v27X1Nvnnz5vnafnj7zCgCTKFmQsSff/659yC+8cYbWQsDn3/++e7tt992O+ywg/vggw/ygIZuISwBPLyIOHpC8x+GKEZmNzUlMXn+opDTWBEQAREQARFoYAL8g44QnD59upsxY4b7/fff17kCxYsPO+wwd+ihh/o1fnPnzvV1/szatWvni/dSxuOWW25xtIqry6jvRk3B7bff3nd7iGoUmKY2IfUH02sQRj1XtvEktxD2pqVdLp1MGvJe8uVc/Dbw2FHo25J9wt5bsK2f1vyFpaZxIiACIiACIrABCHzxxRdenJGJi2cOsZVuRUVFvqMGYg9DCCLEyBTmlWPr8gyZ+CNrGCEZ1axDCMdxDcLPhKrxRiFQSSRpiN69XOeRRx7xhagtwznqvcZtvIm//fbbz7cBjNKV5Mknn3SsNcUk/uL2y9B8REAEREAEYkMAgff+++97jyBr+3788cd15kYIGeMVEchGGQ/KeWQy1n0ROsw17Pvll1/6LGS8cogRu75di+uTWHD11Vf7dYW5GuJv3LhxPqQdtYtJrtfM9+NM/FGmZ9KkSZE8r48//ri74YYb/BRV6iXfn7TuTwREQAREQAT+j8BXX33lhSDbJ598klEIWjj40UcfdR06dFhnjIm/9a3zZ0KEotGEIflM+Pqxxx5zeC8J1ZJY0LVr11oh6rAPE/GHh+rpp592rVu3DntYrMd9//33vkQLNR/J7I4SDp8yZYpfH4rdfffdGXtHB+Ep2zfWPyVNTgREQAREoBAJLFmyxItAFvKTwGFt4YIewAULFjiSQoJmCR/r2+EDgdezZ0+fhHLppZemLmHJLAMHDnS//vqroxfxCSecEBmxhZejFLCOfJEsBxBCZ/0k3VRIkCCc3dhGrT6YI6gRxlHsiSeecIMGDfKHUCvyzDPPzHq4xF8UuhorAiIgAiIgAhuYAMKPVm307aU1nIViSQJJXy9n4m+fffbx4jFXMyEyYMCAWuLPzodnknqErAN8+OGHI/Uf5hyIxuHDh0fqXpLrXDIdR0cMwuckt1AcmXI7UXooN+S92LmMOUkfCLgoFlzzR2mgs88+W+IvCkCNFQEREAEREIF8JXDbbbe5hx56yN8eRaQRUUG74IILvFA84IADfLHnXM2ECJnFhH7TDc9Znz59/NrAXJI2EKacu7E8f+bBvPnmm70Hk7WHMGtMq09wZ7u3p556yrcNxMig5neQzeT5a8wnrWuLgAiIgAiIQEQCiDv+oWcdHpm/rO8zQ5CRPMI6updeeinimf9/eLYQJMLp5Zdf9iFhQr6sT0vPTGXMH3/84VauXOnb06WXjfmvxB+FrQmZ3njjjb6wdrotXbrUzZ8/3x1xxBEN4un75ptvvMhmrSXt+RYtWuTPj0d2//33j5QZvT7ij7WT11xzjZ8uHmKKfUv85fzz14EiIAIiIAIikH8ECFeSIJCeKXvxxRe7119/3ScN0BEkVzMhcvzxx7vLLrvMbbvttr70DMKG5AJE5+677+7IMk1fL4c38Morr3RVVVX+8iSp0K4Ob5QlrOQq/v78809fB5ESOSREMP+ddtopNc2rrrrKF9dm/VtwrSIDEKQkQ9x3331Z18WZVxARRXgYI4zO+UpLSx2leMwsaxnxxXyZp4XlyZrmeWCwYx0lzwyDJ3Udg2VzjAndXujvHMV41mRgYwhfK/hc1znk+YtCV2NFQAREQAREII8JINSmTZvmu4eQBJCrmfjDc5fJqCeIwNp8881r7aZczTnnnOPL1uAZ3HvvvX1JF7yUCBREFJYu/ljXSHkTQtokPZBQEhRGCCpEHSFoWuKZUYeQeoEkuGAcP2LECJ81m540gfDi3BhhXvof01eZe7L1fsuXL/eJIFwL23LLLf0+PHpcly4r1OCzeTz//POOdZGXX365vzbePrxuHIN3kVqJzJ0xs2fPrsWKOXJc06ZNMzKJ8uy4X4Qvlkn4pp9L4i8KXY0VAREQAREQgTwmgOAi3NupUyc3ceLEnO+0PvGH140wI2Fm84QhFBGfhJ3Hjx/vs1YxwsJ424I1/d58803Xu3dv39P46KOP9gWKaYVnFixUjPBjbSOijlDuyJEj3Z577umWLVvmO2JQFJn93AcijUxXQs2TJ092m222WeqclmFs4sjmiNhDsGI2Bg/lqFGjfE1DxBlzo4sG3kBqKJrH00QsxzIP5kP41wwRzDwXLlzoBS3is0WLFv46JJlwj8cdd9x6iz+eOc8e4zp4XrOZxF/Ofxo6UAREQAREQATyi4CFPU855RQvunI1q/PHWj3CvKxhI9RMCRq8XWxWl47sUoQXaxEJ7SIM8Qy2bdvWIbBM4OEZs7V/JrzwfP3888/eS9mlSxd35JFH+tZmHGuFjmlTR/Yq3wXFFR1MEHoIPPMqIhQRpZTHwRuGZxDDw3fWWWf5UDWeQsSh3T/irLy83I+rqKjwAg9PnXnSggwrKyv9WNtPGByBWFNT4zlxj2Z4M/v37+9FbVAM40HkHKwV5NrWym19MqDp+XzRRRf5S3Pf3J/EX66/fh0nAiIgAiIgAgVEgEQQMj8RJKNHj875zvGgETpFqGTK5kXYkCmLaMN7deyxx3rRhdePdXHcg7WuY20b4ifYEcTEH6ISEYZYQRDR9QRvIgWvTdAR6kXcIOYsvGvCihA3hoBCSGEWimX+cMBDWFZW5tcKUhKFVnWYCVySY6yocn31B01w4sGjHIvNgxZ46Z5Gq5VIMgjeRlvvaGKWORBGnjp1qttuu+1SXsdcMqDp6sJ1MLyv1uqtrh+APH85/2noQBEQAREQARHILwJ0ecADhQeOkh+5mpVyCYqw9HOZ4EDYUF8Q0bZ48WIvZljrRnJGcXFxxjZl2cKleN7wwBFaPeaYY7wni/GEjQnxBtflnXrqqd7j2KZNm1To19b2kYFMggddSRCw3Cci0ERYdXW154QIRFgiwKxNGoITEWVjmfsvv/ziQ6vz5s1LeflM/CEg01uy2b5evXqlngWJMpyDtYQtW7b0HkoL/ZrwzCXhA0GJ0MX69euXavUm8ZfrX4COEwEREAEREIECIYA3jrAmIsfafYW9dTxRs2bN8t63du3a+fAnJV0QcyQvBM2EEJ4wEyvUIKTgM8KJ61siQ6brW4iT8Ctewn333Tc1DIHEGjxCwpzL1rMRTkagWfIFYVz62TKOHsnBsKslfthJGcv9BZNIVqxY4UOlrMcz76YJx99++817Pjt27OgoD4NImzlzpp9TsK2dCTzK7TAPRK8ZHke8cYhF+56wOWsCac/HeRGfeErpMoLAhVuYhI10poSfEcIY9RNZx5jN5PkL+1ehcSIgAiIgAiKQ5wRMgFH2g/VmUQwBhUiyUiV4vXiP981qCRLKpbOIlSyhlAkhRkSVZfrSMq2kpMSv+6MMDMKEZAlEHVnICEQyX/FQEaYOeuO4X0scYR0dmbVNmjTxnjNELYZHz5JNuC7iCpGFhw3xiyG8LImExJM77rijViKGcSGxhHkHvXbMj+4jwf7KCE9CvYSng+FrPJ10OkEUElJGzAbt008/9WIM7yJGyHnMmDE+YcVC59OnT/eeR0LszAEvJvNOr52Y7VnS6s/a7OGBpeSMxF+UX7/GioAIiIAIiECBEiBDlfBhLt4jvHmsmyPUW58hYvAskuAQDI0icqhvR0/ioDGGVnAcQw1CjLArYeFMHkI8ZAhMwql2fkLRf//9txdY2byKdl1q6yEC8bTVNZ4xeDq5j0xGkgvCL71IdXAsope5tGrVKuM5uEa2EHjwINhzLlgFudb3PGDVvn17PwzRTWa0xF991LRfBERABERABGJAAI8PXqxcPH9B0YRYwfOWbnijWK9Wn3E8IVHEGiFdPIDBkGt9x2t/NAKEqS3TGO8t/wmQ+IvGUKNFQAREQAREoCAJEOok/EidN+q9yZJBAA+ltbMjdEwNQYm/ZDx7zVIEREAERCDhBBB9JC/QiozQrywZBFgnSSY0xtpEspwl/pLx7DVLERABERCBhBOw3r68svZOlhwClI7BMrW2S6egbN/k/C40UxEQAREQgZgTYLE/5VrCZHzGHEXipkdfYcrXdO/e3fdTlucvcT8BTVgEREAERCCJBGh3NmfOHF/6hHIlsuQQIEOY0jP0O6YWocRfcp69ZioCIiACIpBgAqz3ovAyvXDpuStLDgFKvVDyJUxfZ4V9k/O70ExFQAREQARiTqBHjx6+CHOYjM+Yo0jc9Lp06eJrNEr8Je7Ra8IiIAIiIAJJJtCtWzffmSLMov8kc4rj3FnrV1VV5fgN0C5OYd84PmXNSQREQAREQATSCNDflXZqYdZ9CV68CNAPmRZ6YYS/wr7xevaajQiIgAiIQIIJ8A//3LlzQ4X+EowpllO3Mj+E/ukfLM9fLB+zJiUCIiACIiACtQmY96e0tNSNHz9eeBJEwAp8h1nvKc9fgn4YmqoIiIAIiEC8CfTt29fNmDHDde3a1T344IPxnqxmV4uAtfYLk+kt8acfjwiIgAiIgAjEhEB5ebmrrKyU+IvJ84wyjaFDh7pJkya53r17u2HDhinsGwWexoqACIiACIhAoRIwAdC5c2c3duxYt3r16tS2atWqWp+D+9Lf29h//vnHrVmzxvHKtnbt2tR7+66u7xlbU1OTOubff/91bHxnW5jPYcYEz8l7jDlks0022cRttNFGrkmTJqkt/XNwH++j7md806ZNXbNmzercmjdv7scEXxnP56KiIr8VFxf7Lfie+7fveaWrx+TJk11ZWZkbPHiwxF+h/hHrvkVABERABEQgCoGKigo3ZMiQKIdobMwIsPZv4MCBEn8xe66ajgiIgAiIgAhkJECRX7I9q6urRSihBCZMmOBKSkok/hL6/DVtERABERCBBBNYvny5D31aSNfe81rX94y1/YRP+Wxh3WAIl5Buelg302dCtkm2YLg3GNpN/z5TWNhCvtleCf0G9xP+DWNK+AhDSWNEQAREQAREQAREICYEJP5i8iA1DREQAREQAREQAREIQ0DiLwwljREBERABERABERCBmBCQ+IvJg9Q0REAEREAEREAERCAMAYm/MJQ0RgREQAREQAREQARiQkDiLyYPUtMQAREQAREQAREQgTAEJP7CUNIYERABERABERABEYgJAYm/mDxITUMEREAEREAEREAEwhD4H4qfNUDE3OihAAAAAElFTkSuQmCC;" vertex="1" parent="1">
          <mxGeometry x="325.5" y="5973" width="639" height="304" as="geometry" />
        </mxCell>
      </root>
    </mxGraphModel>
  </diagram>
</mxfile>
